<?xml version="1.0" encoding="UTF-8"?>
<svg width="125px" height="99px" viewBox="0 0 125 99" version="1.1" xmlns="http://www.w3.org/2000/svg" xmlns:xlink="http://www.w3.org/1999/xlink">
    <title>6318AF1A-BE17-4268-9FDC-EE8B4D134057</title>
    <g id="--------↳-For-team-review" stroke="none" stroke-width="1" fill="none" fill-rule="evenodd">
        <g id="Icons" transform="translate(-685.000000, -517.000000)">
            <g id="img-bw" transform="translate(685.000000, 517.000000)">
                <ellipse id="Oval" fill-opacity="0.5" fill="#E0E1E6" fill-rule="nonzero" transform="translate(62.552536, 50.044566) rotate(-361.000000) translate(-62.552536, -50.044566) " cx="62.5525355" cy="50.0445659" rx="42.3396621" ry="42.2858627"></ellipse>
                <rect id="Rectangle" fill="#DAC7FB" fill-rule="nonzero" x="54.779677" y="68.1081081" width="14.0692641" height="24.3243243"></rect>
                <path d="M68.1333747,68.3001353 L68.1333747,91.6998647 L55.4952434,91.6998647 L55.4952434,68.3001353 L68.1333747,68.3001353 M68.9711693,67.027027 L54.6574488,67.027027 C54.4260982,67.027027 54.2385515,67.2170237 54.2385515,67.4513964 L54.2385515,92.5486036 C54.2385515,92.7829763 54.4260982,92.972973 54.6574488,92.972973 L68.9711693,92.972973 C69.2025199,92.972973 69.3900666,92.7829763 69.3900666,92.5486036 L69.3900666,67.4513964 C69.3900666,67.2170237 69.2025199,67.027027 68.9711693,67.027027 Z" id="Shape" fill="#6D7078" fill-rule="nonzero"></path>
                <g id="Group" opacity="0.5" transform="translate(56.944179, 69.729730)" fill="#FFFFFF" fill-rule="nonzero">
                    <rect id="Rectangle" x="0" y="0" width="9.64285714" height="20.5405405" rx="0.541125541"></rect>
                </g>
                <polyline id="Path" stroke="#6D7078" stroke-width="1.62337662" stroke-linejoin="round" points="91.5762138 55.1351351 91.5762138 47.027027 33.1346554 47.027027 33.1346554 55.1351351"></polyline>
                <line x1="61.5437463" y1="34.0540541" x2="61.5437463" y2="67.5675676" id="Path" stroke="#6D7078" stroke-width="1.62337662" fill="#F3BF5A" fill-rule="nonzero" stroke-linejoin="round"></line>
                <ellipse id="Oval" stroke="#6D7078" stroke-width="1.62337662" fill="#F3BF5A" fill-rule="nonzero" stroke-linejoin="round" cx="61.5437463" cy="47.2972973" rx="5.68181818" ry="5.67567568"></ellipse>
                <ellipse id="Oval" fill="#FFFFFF" fill-rule="nonzero" opacity="0.400000006" cx="61.5437463" cy="47.2972973" rx="3.78787879" ry="3.51351351"></ellipse>
                <polyline id="Path" stroke="#6D7078" stroke-width="1.62337662" fill="#B3EAE9" fill-rule="nonzero" stroke-linejoin="round" points="21.771019 69.1099677 21.771019 55.6756757 44.4982917 55.6756757 44.4982917 69.1891892"></polyline>
                <rect id="Rectangle" fill="#DEDEDE" fill-rule="nonzero" x="78.5892008" y="55.1351351" width="25.974026" height="16.7567568" rx="0.481601732"></rect>
                <path d="M103.848452,55.8762109 L103.848452,71.6828125 L79.3039755,71.6828125 L79.3039755,55.8762109 L103.848452,55.8762109 M104.108005,54.5945946 L79.0486091,54.5945946 C78.4976603,54.5945946 78.0503805,55.0491183 78.0480753,55.6113436 L78.0480753,71.956224 C78.0503805,72.5184493 78.4976603,72.972973 79.0486091,72.972973 L104.108005,72.972973 C104.658272,72.972973 105.104352,72.517759 105.104352,71.956224 L105.104352,55.6113436 C105.104352,55.0498086 104.658272,54.5945946 104.108005,54.5945946 L104.108005,54.5945946 Z" id="Shape" fill="#6D7078" fill-rule="nonzero"></path>
                <line x1="79.1303264" y1="68.9189189" x2="104.563227" y2="68.9189189" id="Path" stroke="#6D7078" stroke-width="1.62337662" stroke-linejoin="round"></line>
                <path d="M89.289602,72.5068819 C89.2028236,75.0381632 87.788335,76.2162162 87.788335,76.2162162 L95.3640926,76.2162162 C94.5218462,75.1221078 94.0015998,73.8108822 93.8628256,72.4324324" id="Path" stroke="#6D7078" stroke-width="1.62337662" fill="#4DA1D2" fill-rule="nonzero" stroke-linejoin="round"></path>
                <line x1="58.5675558" y1="77.5675676" x2="64.5199368" y2="77.5675676" id="Path" stroke="#A274F4" stroke-width="1.62337662" stroke-linecap="round" stroke-linejoin="round"></line>
                <line x1="58.5675558" y1="73.2432432" x2="64.5199368" y2="73.2432432" id="Path" stroke="#A274F4" stroke-width="1.62337662" stroke-linecap="round" stroke-linejoin="round"></line>
                <path d="M61.5437463,85.9459459 C60.7966078,85.9459459 60.1909324,86.5509666 60.1909324,87.2972973 C60.1909324,88.043628 60.7966078,88.6486486 61.5437463,88.6486486 C62.2908847,88.6486486 62.8965601,88.043628 62.8965601,87.2972973 C62.8965601,86.5509666 62.2908847,85.9459459 61.5437463,85.9459459 L61.5437463,85.9459459 Z" id="Path" fill="#A274F4" fill-rule="nonzero"></path>
                <path d="M20.1045092,72.4324324 C19.5306202,72.4324324 19.0653913,71.9282486 19.0653913,71.3063063 L19.0653913,69.7297297 L47.745045,69.7297297 L47.745045,71.3063063 C47.745045,71.9282486 47.2798161,72.4324324 46.7059271,72.4324324 L20.1045092,72.4324324 Z" id="Path" fill="#86B0AF" fill-rule="nonzero"></path>
                <path d="M47.0235443,70.4504505 L47.0235443,71.2912913 C47.0235443,71.5234831 46.8351119,71.7117117 46.6026688,71.7117117 L19.6666419,71.7117117 C19.4341988,71.7117117 19.2457665,71.5234831 19.2457665,71.2912913 L19.2457665,70.4504505 L47.0235443,70.4504505 M48.2861705,69.1891892 L17.9831402,69.1891892 L17.9831402,71.2912913 C17.9831402,72.2200584 18.7368696,72.972973 19.6666419,72.972973 L46.6026688,72.972973 C47.5324412,72.972973 48.2861705,72.2200584 48.2861705,71.2912913 L48.2861705,69.1891892 Z" id="Shape" fill="#6D7078" fill-rule="nonzero"></path>
                <path d="M47.1847445,33.5135135 C44.1134415,33.5044209 41.5536429,31.1592085 41.2761654,28.1002466 C40.9986878,25.0412848 43.0947049,22.273688 46.1142347,21.7120234 C45.0087455,18.5893404 45.488477,15.1242479 47.4007668,12.4194233 C49.3130566,9.71459876 52.4197034,8.10696432 55.732096,8.10810811 C59.4037658,8.11546767 62.7900437,10.0895992 64.6056184,13.2811928 C65.5971271,12.5416562 66.8018794,12.1439585 68.0387767,12.1478817 C70.9844794,12.1524681 73.4538985,14.3750946 73.7676767,17.304238 C77.9192803,17.6145862 81.1662884,21.0100406 81.291117,25.171634 C81.4159457,29.3332274 78.3782889,32.9172181 74.2527514,33.4758759 L74.1691178,33.4758759 L47.1847445,33.5135135 Z" id="Path" fill="#BDE1F0" fill-rule="nonzero"></path>
                <path d="M55.7470272,8.2988862 C59.4724399,8.29724597 62.8601696,10.4873097 64.4297926,13.9120297 C65.9001101,12.4261897 68.1083361,11.9837805 70.0257515,12.7909018 C71.943167,13.5980231 73.1926125,15.4959126 73.1920245,17.600424 C77.1311711,17.6189268 80.3863206,20.7203973 80.6481325,24.7045211 C80.9099445,28.6886449 78.0893716,32.2003471 74.1874475,32.7482777 L47.2190125,32.782194 C44.3278422,32.7641794 41.9801085,30.4089482 41.9323638,27.4786621 C41.884619,24.548376 44.154343,22.1158423 47.0433496,22.0010599 C45.7028615,19.0011209 45.9555659,15.516673 47.7144368,12.7476881 C49.4733077,9.97870313 52.4980583,8.30346353 55.7470272,8.2988862 M55.7470272,7.02702703 C52.3497184,7.0276359 49.1496306,8.64438631 47.1038884,11.3937191 C45.0581463,14.1430519 44.4039296,17.7062141 45.3369101,21.0174881 C42.2442816,21.9920225 40.3113338,25.1030643 40.7802835,28.35129 C41.2492331,31.5995157 43.9805797,34.0186617 47.2190125,34.0540541 L50.6528036,34.0540541 L74.1958124,34.0243773 L74.3631104,34.0243773 C78.6592752,33.3673604 81.8359541,29.6250705 81.8359541,25.2209857 C81.8359541,20.8169009 78.6592752,17.074611 74.3631104,16.4175941 C73.9873733,14.3326857 72.629251,12.5659381 70.7266474,11.68701 C68.8240439,10.8080819 66.617605,10.928142 64.8187604,12.0084791 C62.8138953,8.90704694 59.405034,7.03517985 55.7470272,7.02702703 Z" id="Shape" fill="#6D7078" fill-rule="nonzero"></path>
                <g id="Group" opacity="0.3" transform="translate(40.710413, 7.027027)" fill-rule="nonzero">
                    <path d="M6.52841782,24.5666356 C4.9239406,24.5936053 3.42696974,23.7616306 2.60139967,22.3841082 C1.7758296,21.0065858 1.74708405,19.2927941 2.5259912,17.888302 C3.30489835,16.4838099 4.77312367,15.601993 6.37760089,15.5750233 C6.65706342,15.5661063 6.91366677,15.4182254 7.06170559,15.1807726 C7.2097444,14.9433199 7.22970782,14.6475905 7.11492808,14.3923579 C5.10199255,9.99158006 7.03390169,4.79048919 11.4299679,2.7753962 C15.8260342,0.76030322 21.0215567,2.69428282 23.0344924,7.09506058 C23.1498108,7.34365096 23.3791825,7.52015641 23.6488106,7.56778882 C23.9184386,7.61542123 24.1943056,7.52817112 24.3876554,7.33410997 C25.620296,6.10321767 27.4720177,5.73638081 29.0800618,6.40451692 C30.6881059,7.07265304 31.7361122,8.64431576 31.7357911,10.3872321 C31.7357911,10.8504718 32.1109191,11.2260019 32.5736629,11.2260019 C36.0683224,11.2437942 38.95902,13.9542843 39.2051184,17.4440492 C39.4512169,20.9338141 36.9695815,24.0239741 33.5120793,24.5330848 L6.52841782,24.5666356 Z" id="Path" fill="#C9DFEC"></path>
                    <path d="M15.0705209,2.86346692 C18.1464467,2.87498697 20.9404463,4.65964228 22.2468929,7.4473439 C22.4777693,7.94351785 22.9359364,8.29572974 23.4743751,8.39095993 C23.5712003,8.40794186 23.6693305,8.41636203 23.7676302,8.41612302 C24.2144964,8.41981996 24.644327,8.24468387 24.9615975,7.92963653 C25.6093807,7.27838215 26.4901174,6.91302817 27.4081832,6.91472507 C29.3236673,6.91702979 30.8765476,8.46969922 30.8811618,10.3872321 C30.8811618,11.3137116 31.6314178,12.0647717 32.5569055,12.0647717 C35.6020294,12.080086 38.1250631,14.4336065 38.3550156,17.4733285 C38.584968,20.5130505 36.4447622,23.2200978 33.4366709,23.694315 L9.9762603,23.7236719 L6.52841782,23.7236719 C4.51085479,23.7572568 2.84810004,22.1471718 2.81455112,20.1274464 C2.78100219,18.107721 4.38936338,16.4431842 6.40692641,16.4095993 C6.96625416,16.3909951 7.4793876,16.0941039 7.77470753,15.6182219 C8.07002745,15.1423399 8.1085501,14.550286 7.87739143,14.0400746 C6.77320815,11.5922034 6.98389581,8.75087661 8.43701283,6.49303891 C9.89012985,4.23520122 12.3875295,2.8687309 15.0705209,2.86346692 M15.0705209,1.18591904 C11.8146971,1.18760864 8.78233301,2.84364416 7.01855563,5.58326878 C5.25477826,8.32289339 5.00077351,11.77148 6.34408602,14.7404473 C3.44909833,14.8545973 1.17562781,17.2632736 1.22574938,20.1631772 C1.27587095,23.0630808 3.63121825,25.3915816 6.52841782,25.4054054 L33.5497835,25.3718546 C37.4581537,24.8298284 40.2833861,21.3559679 40.0211417,17.4147764 C39.7588973,13.473585 36.4983702,10.4055356 32.5527161,10.3872321 C32.5533051,8.30539863 31.3017955,6.42796054 29.3812124,5.62953665 C27.4606294,4.83111277 25.2487555,5.26875462 23.7760089,6.73858341 C22.2025179,3.34801292 18.8051181,1.18103583 15.0705209,1.18591904 Z" id="Shape" fill="#FFFFFF"></path>
                </g>
                <polygon id="Path" fill="#E1F7F6" fill-rule="nonzero" points="23.9355212 68.0457128 23.9355212 57.8378378 42.8749151 57.8378378 42.8749151 68.1081081"></polygon>
                <path d="M78.9642314,71.8918919 C78.7661815,71.8918919 78.5892008,71.6532992 78.5892008,71.3823549 L78.5892008,68.6486486 L104.563227,68.6486486 L104.563227,71.3823549 C104.563227,71.6532992 104.386246,71.8918919 104.188196,71.8918919 L78.9642314,71.8918919 Z" id="Path" fill="#4DA1D2" fill-rule="nonzero"></path>
                <path d="M103.845811,69.4324815 L103.845811,71.6397704 L79.3063058,71.6397704 L79.3063058,69.4324815 L103.845811,69.4324815 M105.101457,68.1081081 L78.05066,68.1081081 L78.05066,71.7545495 C78.0098692,72.3816674 78.4566925,72.9259071 79.0509912,72.972973 L104.105312,72.972973 C104.699052,72.9259467 105.144669,72.3808954 105.101457,71.7545495 L105.101457,68.1081081 Z" id="Shape" fill="#6D7078" fill-rule="nonzero"></path>
            </g>
        </g>
    </g>
</svg>