<?xml version="1.0" encoding="UTF-8"?>
<svg width="95px" height="109px" viewBox="0 0 95 109" version="1.1" xmlns="http://www.w3.org/2000/svg" xmlns:xlink="http://www.w3.org/1999/xlink">
    <!-- Generator: sketchtool 59 (101010) - https://sketch.com -->
    <title>FDBEB19A-344A-4253-BC0C-4801BADD0899</title>
    <desc>Created with sketchtool.</desc>
    <g id="↳-components/Modals" stroke="none" stroke-width="1" fill="none" fill-rule="evenodd">
        <g id="Modals---Import" transform="translate(-400.000000, -3027.000000)" fill="#0081CB">
            <g id="icon-ear-file-drag" transform="translate(400.000000, 3027.000000)">
                <g id="83">
                    <path d="M91.7072527,108.139789 L91.6971148,108.139789 L2.49232628,108.139789 C1.17271382,108.139789 0.0997894737,107.065264 0.0997894737,105.739902 L0.0997894737,2.53967648 C0.0997894737,1.21431516 1.17271382,0.139789474 2.49232628,0.139789474 L64.841903,0.139789474 C65.4907265,0.139789474 66.1142054,0.404183805 66.5653405,0.873653228 L93.0167273,28.3791379 C93.4425177,28.8197951 93.6824472,29.407903 93.6858265,30.0231283 L94.0896516,105.502625 C94.0964102,105.580588 94.0997895,105.65855 94.0997895,105.739902 C94.0997895,107.065264 93.0285548,108.139789 91.7072527,108.139789 L91.7072527,108.139789 Z M4.88486308,103.340015 L89.2843023,103.340015 L88.9108908,31.0230812 L63.8281162,4.9395635 L4.88486308,4.9395635 L4.88486308,103.340015 L4.88486308,103.340015 Z" id="Fill-1"></path>
                    <path d="M91.0101053,32.2425263 L91,32.2425263 L63.6686316,32.2425263 C62.3498947,32.2425263 61.2837895,31.1747368 61.2837895,29.856 L61.2837895,2.52463158 C61.2837895,1.55957895 61.8648421,0.690526316 62.7557895,0.32 C63.6450526,-0.0471578947 64.6724211,0.154947368 65.3528421,0.838736842 L92.5646316,28.0488421 C93.0732632,28.4867368 93.3949474,29.1334737 93.3949474,29.856 C93.3949474,31.1747368 92.3288421,32.2425263 91.0101053,32.2425263 L91.0101053,32.2425263 Z M66.0534737,27.4711579 L85.2433684,27.4711579 L66.0534737,8.28126316 L66.0534737,27.4711579 L66.0534737,27.4711579 Z" id="Fill-2"></path>
                </g>
                <path d="M27.23125,88.515 C27.23125,89.5275 27.97375,90.27 28.91875,90.27 C29.86375,90.27 30.58375,89.5275 30.58375,88.515 C30.58375,87.5025 29.86375,86.76 28.91875,86.76 C27.97375,86.76 27.23125,87.5025 27.23125,88.515 L27.23125,88.515 Z M32.81125,84.4875 C32.81125,88.1325 35.19625,90.27 38.25625,90.27 C39.65125,90.27 40.97875,89.775 42.03625,89.0775 L41.15875,87.4575 C40.34875,87.975 39.53875,88.2675 38.59375,88.2675 C36.81625,88.2675 35.55625,87.1425 35.33125,85.14 L42.35125,85.14 C42.41875,84.87 42.46375,84.42 42.46375,83.925 C42.46375,80.8425 40.88875,78.6825 37.89625,78.6825 C35.30875,78.6825 32.81125,80.8875 32.81125,84.4875 L32.81125,84.4875 Z M35.30875,83.4975 C35.53375,81.6525 36.65875,80.685 37.96375,80.685 C39.47125,80.685 40.21375,81.7425 40.21375,83.4975 L35.30875,83.4975 Z M44.19625,87.03 C44.19625,88.965 45.54625,90.27 47.48125,90.27 C48.78625,90.27 49.91125,89.6175 50.90125,88.785 L50.96875,88.785 L51.17125,90 L53.28625,90 L53.28625,83.4525 C53.28625,80.37 51.93625,78.6825 49.16875,78.6825 C47.41375,78.6825 45.86125,79.3575 44.64625,80.1225 L45.59125,81.855 C46.55875,81.27 47.59375,80.775 48.69625,80.775 C50.18125,80.775 50.67625,81.765 50.69875,82.935 C46.17625,83.43 44.19625,84.6675 44.19625,87.03 L44.19625,87.03 Z M46.71625,86.8275 C46.71625,85.725 47.70625,84.9375 50.69875,84.555 L50.69875,87.03 C49.88875,87.795 49.19125,88.245 48.29125,88.245 C47.36875,88.245 46.71625,87.8175 46.71625,86.8275 L46.71625,86.8275 Z M56.43625,90 L59.02375,90 L59.02375,83.25 C59.69875,81.585 60.75625,80.9775 61.63375,80.9775 C62.10625,80.9775 62.39875,81.045 62.78125,81.1575 L63.23125,78.9075 C62.89375,78.75 62.53375,78.6825 61.97125,78.6825 C60.80125,78.6825 59.63125,79.47 58.84375,80.91 L58.75375,80.91 L58.57375,78.9525 L56.43625,78.9525 L56.43625,90 Z" id=".ear"></path>
                <path d="M62.59,56.93 L60.94,56.93 C60.98,56.5 61,56.07 61,55.64 L61,47.32 L62.59,47.32 C65.24,47.32 67.4,49.48 67.4,52.13 C67.4,54.78 65.24,56.93 62.59,56.93 L62.59,56.93 Z M57.7,55.64 C57.7,56.08 57.67,56.51 57.61,56.93 C57.47,58.09 57.13,59.18 56.62,60.17 C54.96,63.45 51.56,65.7 47.64,65.7 L44.35,65.7 C38.81,65.7 34.3,61.19 34.3,55.64 L34.3,43.05 C34.3,42.636 34.636,42.3 35.05,42.3 L56.95,42.3 C57.364,42.3 57.7,42.636 57.7,43.05 L57.7,55.64 Z M62.59,44.02 L61,44.02 L61,40.5 C61,39.672 60.328,39 59.5,39 L32.5,39 C31.672,39 31,39.672 31,40.5 L31,55.64 C31,63.02 36.98,69 44.35,69 L47.64,69 C53.41,69 58.32,65.35 60.19,60.23 L62.59,60.23 C67.07,60.23 70.7,56.6 70.7,52.13 C70.7,47.66 67.07,44.02 62.59,44.02 L62.59,44.02 Z" id="cup-outline"></path>
            </g>
        </g>
    </g>
</svg>