<?xml version="1.0" encoding="UTF-8"?>
<svg width="99px" height="112px" viewBox="0 0 99 112" version="1.1" xmlns="http://www.w3.org/2000/svg" xmlns:xlink="http://www.w3.org/1999/xlink">
    <!-- Generator: sketchtool 59 (101010) - https://sketch.com -->
    <title>5811095A-8E9D-4FD8-B99E-CB608F9EF0E0</title>
    <desc>Created with sketchtool.</desc>
    <g id="↳-components/Modals" stroke="none" stroke-width="1" fill="none" fill-rule="evenodd">
        <g id="Modals---Import" transform="translate(-1345.000000, -3027.000000)">
            <g id="icon-ear-file-remove" transform="translate(1345.000000, 3027.000000)">
                <g id="83">
                    <path d="M91.4126316,111.462737 L91.4025263,111.462737 L2.48463158,111.462737 C1.16926316,111.462737 0.0997894737,110.394947 0.0997894737,109.077895 L0.0997894737,6.52463158 C0.0997894737,5.20757895 1.16926316,4.13978947 2.48463158,4.13978947 L64.6336842,4.13978947 C65.2804211,4.13978947 65.9018947,4.40252632 66.3515789,4.86905263 L92.7178947,32.2021053 C93.1423158,32.64 93.3814737,33.2244211 93.3848421,33.8357895 L93.7873684,108.842105 C93.7941053,108.919579 93.7974737,108.997053 93.7974737,109.077895 C93.7974737,110.394947 92.7296842,111.462737 91.4126316,111.462737 L91.4126316,111.462737 Z" id="page-shadow" fill="#DFE1F1" opacity="0.8"></path>
                    <polygon id="page-fill" fill="#E2E4F4" points="9 103.400452 93.3994392 103.400452 93.0260277 31.0835177 67.9432531 5 9 5"></polygon>
                    <path d="M16.756,85 L17.918,85 L17.918,81.122 L19.584,81.122 L21.796,85 L23.112,85 L20.774,80.996 C22.034,80.688 22.846,79.82 22.846,78.392 C22.846,76.488 21.502,75.816 19.626,75.816 L16.756,75.816 L16.756,85 Z M17.918,80.17 L17.918,76.754 L19.458,76.754 C20.886,76.754 21.684,77.188 21.684,78.392 C21.684,79.582 20.886,80.17 19.458,80.17 L17.918,80.17 Z M27.228,85.168 C28.152,85.168 28.88,84.846 29.468,84.468 L29.062,83.712 C28.558,84.034 28.012,84.244 27.368,84.244 C26.066,84.244 25.184,83.32 25.1,81.878 L29.692,81.878 C29.72,81.71 29.734,81.458 29.734,81.22 C29.734,79.274 28.754,78.028 27.018,78.028 C25.464,78.028 23.966,79.386 23.966,81.612 C23.966,83.838 25.408,85.168 27.228,85.168 Z M25.086,81.052 C25.226,79.708 26.094,78.938 27.046,78.938 C28.11,78.938 28.726,79.68 28.726,81.052 L25.086,81.052 Z M31.414,85 L32.562,85 L32.562,80.072 C33.192,79.372 33.766,79.022 34.27,79.022 C35.138,79.022 35.544,79.568 35.544,80.842 L35.544,85 L36.692,85 L36.692,80.072 C37.322,79.372 37.868,79.022 38.4,79.022 C39.254,79.022 39.66,79.568 39.66,80.842 L39.66,85 L40.808,85 L40.808,80.688 C40.808,78.952 40.136,78.028 38.736,78.028 C37.91,78.028 37.21,78.56 36.496,79.33 C36.216,78.518 35.656,78.028 34.62,78.028 C33.808,78.028 33.094,78.532 32.506,79.176 L32.464,79.176 L32.366,78.196 L31.414,78.196 L31.414,85 Z M45.666,85.168 C47.332,85.168 48.816,83.866 48.816,81.612 C48.816,79.33 47.332,78.028 45.666,78.028 C44,78.028 42.516,79.33 42.516,81.612 C42.516,83.866 44,85.168 45.666,85.168 Z M45.666,84.216 C44.504,84.216 43.706,83.166 43.706,81.612 C43.706,80.044 44.504,78.98 45.666,78.98 C46.842,78.98 47.626,80.044 47.626,81.612 C47.626,83.166 46.842,84.216 45.666,84.216 Z M52.022,85 L53.366,85 L55.774,78.196 L54.64,78.196 L53.352,82.06 C53.156,82.732 52.932,83.418 52.736,84.062 L52.68,84.062 C52.47,83.418 52.246,82.732 52.05,82.06 L50.762,78.196 L49.572,78.196 L52.022,85 Z M59.792,85.168 C60.716,85.168 61.444,84.846 62.032,84.468 L61.626,83.712 C61.122,84.034 60.576,84.244 59.932,84.244 C58.63,84.244 57.748,83.32 57.664,81.878 L62.256,81.878 C62.284,81.71 62.298,81.458 62.298,81.22 C62.298,79.274 61.318,78.028 59.582,78.028 C58.028,78.028 56.53,79.386 56.53,81.612 C56.53,83.838 57.972,85.168 59.792,85.168 Z M57.65,81.052 C57.79,79.708 58.658,78.938 59.61,78.938 C60.674,78.938 61.29,79.68 61.29,81.052 L57.65,81.052 Z M66.89,85 L68.052,85 L68.052,80.884 L71.552,80.884 L71.552,79.904 L68.052,79.904 L68.052,76.796 L72.182,76.796 L72.182,75.816 L66.89,75.816 L66.89,85 Z M73.694,85 L74.842,85 L74.842,78.196 L73.694,78.196 L73.694,85 Z M74.282,76.796 C74.73,76.796 75.08,76.488 75.08,76.054 C75.08,75.606 74.73,75.312 74.282,75.312 C73.834,75.312 73.484,75.606 73.484,76.054 C73.484,76.488 73.834,76.796 74.282,76.796 Z M78.356,85.168 C78.664,85.168 78.86,85.126 79.014,85.056 L78.86,84.188 C78.734,84.216 78.678,84.216 78.608,84.216 C78.44,84.216 78.286,84.076 78.286,83.712 L78.286,75.032 L77.138,75.032 L77.138,83.628 C77.138,84.622 77.488,85.168 78.356,85.168 Z M83.466,85.168 C84.39,85.168 85.118,84.846 85.706,84.468 L85.3,83.712 C84.796,84.034 84.25,84.244 83.606,84.244 C82.304,84.244 81.422,83.32 81.338,81.878 L85.93,81.878 C85.958,81.71 85.972,81.458 85.972,81.22 C85.972,79.274 84.992,78.028 83.256,78.028 C81.702,78.028 80.204,79.386 80.204,81.612 C80.204,83.838 81.646,85.168 83.466,85.168 Z M81.324,81.052 C81.464,79.708 82.332,78.938 83.284,78.938 C84.348,78.938 84.964,79.68 84.964,81.052 L81.324,81.052 Z" id="RemoveFile" fill="#3C434C" fill-rule="nonzero"></path>
                    <path d="M68.1936859,3.02529185 L95.276207,28.9485837 L95.2762072,36 L64.2945554,36 C63.1892968,36 62.2933076,35.1009047 62.2933076,33.9992493 L62.2933076,3.02529185 L68.1936859,3.02529185 Z" id="Path-2" fill="#D3D6EE"></path>
                    <path d="M95.7072527,108.139789 L95.6971148,108.139789 L6.49232628,108.139789 C5.17271382,108.139789 4.09978947,107.065264 4.09978947,105.739902 L4.09978947,2.53967648 C4.09978947,1.21431516 5.17271382,0.139789474 6.49232628,0.139789474 L68.841903,0.139789474 C69.4907265,0.139789474 70.1142054,0.404183805 70.5653405,0.873653228 L97.0167273,28.3791379 C97.4425177,28.8197951 97.6824472,29.407903 97.6858265,30.0231283 L98.0896516,105.502625 C98.0964102,105.580588 98.0997895,105.65855 98.0997895,105.739902 C98.0997895,107.065264 97.0285548,108.139789 95.7072527,108.139789 L95.7072527,108.139789 Z M8.88486308,103.340015 L93.2843023,103.340015 L92.9108908,31.0230812 L67.8281162,4.9395635 L8.88486308,4.9395635 L8.88486308,103.340015 L8.88486308,103.340015 Z" id="Fill-1" fill="#8493A8"></path>
                    <path d="M95.0101053,32.2425263 L95,32.2425263 L67.6686316,32.2425263 C66.3498947,32.2425263 65.2837895,31.1747368 65.2837895,29.856 L65.2837895,2.52463158 C65.2837895,1.55957895 65.8648421,0.690526316 66.7557895,0.32 C67.6450526,-0.0471578947 68.6724211,0.154947368 69.3528421,0.838736842 L96.5646316,28.0488421 C97.0732632,28.4867368 97.3949474,29.1334737 97.3949474,29.856 C97.3949474,31.1747368 96.3288421,32.2425263 95.0101053,32.2425263 L95.0101053,32.2425263 Z M70.0534737,27.4711579 L89.2433684,27.4711579 L70.0534737,8.28126316 L70.0534737,27.4711579 L70.0534737,27.4711579 Z" id="Fill-2" fill="#8493A8"></path>
                    <polygon id="Path" fill="#EEF0FB" points="70 27.1898947 89.1898947 27.1898947 70 8"></polygon>
                </g>
                <path d="M51,37.75 C59.8364444,37.75 67,44.9144444 67,53.7508889 C67,62.5873333 59.8364444,69.75 51,69.75 C42.1635556,69.75 35,62.5873333 35,53.7508889 C35,44.9144444 42.1635556,37.75 51,37.75 Z M56.4995556,46.75 C56.0862222,46.75 55.7111111,46.9188889 55.44,47.1908889 L55.44,47.1908889 L51,51.63 L46.5608889,47.1908889 C46.2888889,46.9188889 45.9137778,46.75 45.4995556,46.75 C44.672,46.75 44,47.422 44,48.2504444 C44,48.6655556 44.168,49.0406667 44.44,49.3117778 L44.44,49.3117778 L48.8791111,53.7508889 L44.44,58.1908889 C44.168,58.4611111 44,58.8362222 44,59.2504444 C44,60.0797778 44.672,60.75 45.4995556,60.75 C45.9137778,60.75 46.2888889,60.5828889 46.5608889,60.3117778 L46.5608889,60.3117778 L51,55.8717778 L55.44,60.3117778 C55.7111111,60.5828889 56.0862222,60.75 56.4995556,60.75 C57.3288889,60.75 58,60.0797778 58,59.2504444 C58,58.8362222 57.832,58.4611111 57.5608889,58.1908889 L57.5608889,58.1908889 L53.1217778,53.7508889 L57.5608889,49.3117778 C57.832,49.0406667 58,48.6655556 58,48.2504444 C58,47.422 57.3288889,46.75 56.4995556,46.75 Z" id="delete" fill="#3C434C"></path>
            </g>
        </g>
    </g>
</svg>