<?xml version="1.0" encoding="UTF-8"?>
<svg width="99px" height="112px" viewBox="0 0 99 112" version="1.1" xmlns="http://www.w3.org/2000/svg" xmlns:xlink="http://www.w3.org/1999/xlink">
    <!-- Generator: sketchtool 59 (101010) - https://sketch.com -->
    <title>A195092A-580C-4158-81A4-91C3FC4B6E7B</title>
    <desc>Created with sketchtool.</desc>
    <g id="↳-components/Modals" stroke="none" stroke-width="1" fill="none" fill-rule="evenodd">
        <g id="Modals---Import" transform="translate(-901.000000, -3027.000000)">
            <g id="icon-ear-file-uploaded" transform="translate(901.000000, 3027.000000)">
                <g id="83">
                    <path d="M91.4126316,111.462737 L91.4025263,111.462737 L2.48463158,111.462737 C1.16926316,111.462737 0.0997894737,110.394947 0.0997894737,109.077895 L0.0997894737,6.52463158 C0.0997894737,5.20757895 1.16926316,4.13978947 2.48463158,4.13978947 L64.6336842,4.13978947 C65.2804211,4.13978947 65.9018947,4.40252632 66.3515789,4.86905263 L92.7178947,32.2021053 C93.1423158,32.64 93.3814737,33.2244211 93.3848421,33.8357895 L93.7873684,108.842105 C93.7941053,108.919579 93.7974737,108.997053 93.7974737,109.077895 C93.7974737,110.394947 92.7296842,111.462737 91.4126316,111.462737 L91.4126316,111.462737 Z" id="page-shadow" fill="#D6D3D3" opacity="0.5"></path>
                    <polygon id="page-fill" fill="#FAFAFA" points="8.88486308 103.340015 93.2843023 103.340015 92.9108908 31.0230812 67.8281162 4.9395635 8.88486308 4.9395635"></polygon>
                    <path d="M68.1936859,2.02529185 L95.276207,27.9485837 L95.2762072,35 L64.2945554,35 C63.1892968,35 62.2933076,34.1009047 62.2933076,32.9992493 L62.2933076,2.02529185 L68.1936859,2.02529185 Z" id="dog-ear-shadow" fill="#D6D3D3"></path>
                    <path d="M95.7072527,108.139789 L95.6971148,108.139789 L6.49232628,108.139789 C5.17271382,108.139789 4.09978947,107.065264 4.09978947,105.739902 L4.09978947,2.53967648 C4.09978947,1.21431516 5.17271382,0.139789474 6.49232628,0.139789474 L68.841903,0.139789474 C69.4907265,0.139789474 70.1142054,0.404183805 70.5653405,0.873653228 L97.0167273,28.3791379 C97.4425177,28.8197951 97.6824472,29.407903 97.6858265,30.0231283 L98.0896516,105.502625 C98.0964102,105.580588 98.0997895,105.65855 98.0997895,105.739902 C98.0997895,107.065264 97.0285548,108.139789 95.7072527,108.139789 L95.7072527,108.139789 Z M8.88486308,103.340015 L93.2843023,103.340015 L92.9108908,31.0230812 L67.8281162,4.9395635 L8.88486308,4.9395635 L8.88486308,103.340015 L8.88486308,103.340015 Z" id="page-outline" fill="#727272"></path>
                    <path d="M95.0101053,32.2425263 L95,32.2425263 L67.6686316,32.2425263 C66.3498947,32.2425263 65.2837895,31.1747368 65.2837895,29.856 L65.2837895,2.52463158 C65.2837895,1.55957895 65.8648421,0.690526316 66.7557895,0.32 C67.6450526,-0.0471578947 68.6724211,0.154947368 69.3528421,0.838736842 L96.5646316,28.0488421 C97.0732632,28.4867368 97.3949474,29.1334737 97.3949474,29.856 C97.3949474,31.1747368 96.3288421,32.2425263 95.0101053,32.2425263 L95.0101053,32.2425263 Z M70.0534737,27.4711579 L89.2433684,27.4711579 L70.0534737,8.28126316 L70.0534737,27.4711579 L70.0534737,27.4711579 Z" id="dog-ear" fill="#727272"></path>
                    <polygon id="dog-ear-fill" fill="#FFFFFF" points="70.0534737 27.4711579 89.2433684 27.4711579 70.0534737 8.28126316"></polygon>
                </g>
                <path d="M32.23125,88.515 C32.23125,89.5275 32.97375,90.27 33.91875,90.27 C34.86375,90.27 35.58375,89.5275 35.58375,88.515 C35.58375,87.5025 34.86375,86.76 33.91875,86.76 C32.97375,86.76 32.23125,87.5025 32.23125,88.515 L32.23125,88.515 Z M37.81125,84.4875 C37.81125,88.1325 40.19625,90.27 43.25625,90.27 C44.65125,90.27 45.97875,89.775 47.03625,89.0775 L46.15875,87.4575 C45.34875,87.975 44.53875,88.2675 43.59375,88.2675 C41.81625,88.2675 40.55625,87.1425 40.33125,85.14 L47.35125,85.14 C47.41875,84.87 47.46375,84.42 47.46375,83.925 C47.46375,80.8425 45.88875,78.6825 42.89625,78.6825 C40.30875,78.6825 37.81125,80.8875 37.81125,84.4875 L37.81125,84.4875 Z M40.30875,83.4975 C40.53375,81.6525 41.65875,80.685 42.96375,80.685 C44.47125,80.685 45.21375,81.7425 45.21375,83.4975 L40.30875,83.4975 Z M49.19625,87.03 C49.19625,88.965 50.54625,90.27 52.48125,90.27 C53.78625,90.27 54.91125,89.6175 55.90125,88.785 L55.96875,88.785 L56.17125,90 L58.28625,90 L58.28625,83.4525 C58.28625,80.37 56.93625,78.6825 54.16875,78.6825 C52.41375,78.6825 50.86125,79.3575 49.64625,80.1225 L50.59125,81.855 C51.55875,81.27 52.59375,80.775 53.69625,80.775 C55.18125,80.775 55.67625,81.765 55.69875,82.935 C51.17625,83.43 49.19625,84.6675 49.19625,87.03 L49.19625,87.03 Z M51.71625,86.8275 C51.71625,85.725 52.70625,84.9375 55.69875,84.555 L55.69875,87.03 C54.88875,87.795 54.19125,88.245 53.29125,88.245 C52.36875,88.245 51.71625,87.8175 51.71625,86.8275 L51.71625,86.8275 Z M61.43625,90 L64.02375,90 L64.02375,83.25 C64.69875,81.585 65.75625,80.9775 66.63375,80.9775 C67.10625,80.9775 67.39875,81.045 67.78125,81.1575 L68.23125,78.9075 C67.89375,78.75 67.53375,78.6825 66.97125,78.6825 C65.80125,78.6825 64.63125,79.47 63.84375,80.91 L63.75375,80.91 L63.57375,78.9525 L61.43625,78.9525 L61.43625,90 Z" id=".ear" fill="#727272"></path>
                <g id="checkmark" transform="translate(36.000000, 37.750000)" fill="#04BE5B">
                    <path d="M16,0 C24.836556,0 32,7.163444 32,16 C32,24.836556 24.836556,32 16,32 C7.163444,32 0,24.836556 0,16 C0,7.163444 7.163444,0 16,0 Z M22,10.6666667 C21.5857778,10.6666667 21.2097778,10.8355556 20.9386667,11.1066667 L20.9386667,11.1066667 L14,18.0462222 L10.5608889,14.6071111 C10.2888889,14.3351111 9.91377778,14.1671111 9.49955556,14.1671111 C8.672,14.1671111 8,14.8382222 8,15.6666667 C8,16.0808889 8.16711111,16.456 8.43911111,16.7271111 L8.43911111,16.7271111 L12.9386667,21.2275556 C13.2106667,21.4995556 13.5857778,21.6666667 14,21.6666667 C14.4142222,21.6666667 14.7893333,21.4995556 15.0604444,21.2275556 L15.0604444,21.2275556 L23.0595556,13.2275556 C23.3315556,12.9555556 23.4995556,12.5813333 23.4995556,12.1662222 C23.4995556,11.3386667 22.8275556,10.6666667 22,10.6666667 Z" id="27"></path>
                </g>
            </g>
        </g>
    </g>
</svg>