<?xml version="1.0" encoding="UTF-8"?>
<svg width="108px" height="123px" viewBox="0 0 108 123" version="1.1" xmlns="http://www.w3.org/2000/svg" xmlns:xlink="http://www.w3.org/1999/xlink">
    <title>2D155010-9C29-4F2B-B0B9-F9773AFD215D</title>
    <g id="--------↳-For-team-review" stroke="none" stroke-width="1" fill="none" fill-rule="evenodd">
        <g id="Import" transform="translate(-891.000000, -1603.000000)">
            <g id="upload-empty-copy-4" transform="translate(652.000000, 1550.000000)">
                <g id="Group-50" transform="translate(135.000000, 53.000000)">
                    <g id="icon-error" transform="translate(104.000000, 0.000000)">
                        <g id="83">
                            <path d="M100.630479,123 L100.619343,123 L2.62819334,123 C1.17860365,123 0,121.820211 0,120.365014 L0,7.05503519 C0,5.59983814 1.17860365,4.42004923 2.62819334,4.42004923 L71.118986,4.42004923 C71.8317164,4.42004923 72.5166058,4.71034429 73.0121762,5.22580412 L102.068932,35.425795 C102.536662,35.9096201 102.800223,36.5553406 102.803936,37.2308348 L103.247536,120.104493 C103.25496,120.190093 103.258672,120.275692 103.258672,120.365014 C103.258672,121.820211 102.081925,123 100.630479,123 L100.630479,123 Z" id="page-shadow" fill="#D6D3D3" opacity="0.5"></path>
                            <polygon id="page-fill" fill="#FAFAFA" points="9.80839527 114.09207 102.820022 114.09207 102.408507 34.1898799 74.766266 5.37048643 9.80839527 5.37048643"></polygon>
                            <path d="M75.0422532,3.18865299 L104.888297,31.8310146 L104.888297,39.6220474 L70.7588406,39.6220474 C69.5332958,39.6220474 68.5397955,38.6286468 68.5397955,37.3978197 L68.5397955,3.18865299 L75.0422532,3.18865299 Z" id="Path-2" fill="#D6D3D3"></path>
                            <path d="M105.363327,119.328512 L105.352154,119.328512 L7.04483648,119.328512 C5.59056968,119.328512 4.40816327,118.14128 4.40816327,116.676903 L4.40816327,2.65210189 C4.40816327,1.18772465 5.59056968,0.000492976886 7.04483648,0.000492976886 L75.7566149,0.000492976886 C76.4716449,0.000492976886 77.1587441,0.292619382 77.6559134,0.811331013 L106.806421,31.2018402 C107.27566,31.6887175 107.540072,32.3385115 107.543796,33.0182672 L107.988828,116.414738 C107.996276,116.500878 108,116.587018 108,116.676903 C108,118.14128 106.819456,119.328512 105.363327,119.328512 L105.363327,119.328512 Z M9.68150969,114.025294 L102.693137,114.025294 L102.281622,34.1231043 L74.6393805,5.3037108 L9.68150969,5.3037108 L9.68150969,114.025294 L9.68150969,114.025294 Z" id="Fill-1" fill="#727272"></path>
                            <path d="M104.595042,35.4704558 L104.583905,35.4704558 L74.4636219,35.4704558 C73.0103201,35.4704558 71.8354286,34.2906669 71.8354286,32.833609 L71.8354286,2.63547894 C71.8354286,1.56920284 72.4757723,0.60899609 73.4576327,0.199605616 C74.4376369,-0.206063126 75.5698389,0.017240769 76.3196907,0.77275228 L106.308193,30.8369 C106.868726,31.3207251 107.223235,32.0352976 107.223235,32.833609 C107.223235,34.2906669 106.048344,35.4704558 104.595042,35.4704558 L104.595042,35.4704558 Z M77.0918153,30.198623 L98.2398625,30.198623 L77.0918153,8.99591821 L77.0918153,30.198623 L77.0918153,30.198623 Z" id="Fill-2" fill="#727272"></path>
                            <polygon id="Path" fill="#FFFFFF" points="77.0328851 29.8878584 98.1809323 29.8878584 77.0328851 8.68515362"></polygon>
                        </g>
                        <g id="success" transform="translate(44.000000, 47.000000)">
                            <circle id="Oval" fill="#FFFFFF" cx="12" cy="12" r="12"></circle>
                            <path d="M12,0 C18.627417,0 24,5.372583 24,12 C24,18.627417 18.627417,24 12,24 C5.372583,24 0,18.627417 0,12 C0,5.372583 5.372583,0 12,0 Z M16.5,8 C16.1893333,8 15.9073333,8.12666667 15.704,8.33 L15.704,8.33 L10.5,13.5346667 L7.92066667,10.9553333 C7.71666667,10.7513333 7.43533333,10.6253333 7.12466667,10.6253333 C6.504,10.6253333 6,11.1286667 6,11.75 C6,12.0606667 6.12533333,12.342 6.32933333,12.5453333 L6.32933333,12.5453333 L9.704,15.9206667 C9.908,16.1246667 10.1893333,16.25 10.5,16.25 C10.8106667,16.25 11.092,16.1246667 11.2953333,15.9206667 L11.2953333,15.9206667 L17.2946667,9.92066667 C17.4986667,9.71666667 17.6246667,9.436 17.6246667,9.12466667 C17.6246667,8.504 17.1206667,8 16.5,8 Z" id="🎨-Color" fill="#039145"></path>
                        </g>
                        <g id="Error" transform="translate(30.310000, 81.650000)" fill="#DB0000" fill-rule="nonzero">
                            <polygon id="Path" points="0 16.35 10.1 16.35 10.1 13.9 2.9 13.9 2.9 9.075 8.775 9.075 8.775 6.625 2.9 6.625 2.9 2.45 9.85 2.45 9.85 0 0 0"></polygon>
                            <path d="M13.2,16.35 L16.075,16.35 L16.075,8.85 C16.825,7 18,6.325 18.975,6.325 C19.5,6.325 19.825,6.4 20.25,6.525 L20.75,4.025 C20.375,3.85 19.975,3.775 19.35,3.775 C18.05,3.775 16.75,4.65 15.875,6.25 L15.775,6.25 L15.575,4.075 L13.2,4.075 L13.2,16.35 Z" id="Path"></path>
                            <path d="M22.525,16.35 L25.4,16.35 L25.4,8.85 C26.15,7 27.325,6.325 28.3,6.325 C28.825,6.325 29.15,6.4 29.575,6.525 L30.075,4.025 C29.7,3.85 29.3,3.775 28.675,3.775 C27.375,3.775 26.075,4.65 25.2,6.25 L25.1,6.25 L24.9,4.075 L22.525,4.075 L22.525,16.35 Z" id="Path"></path>
                            <path d="M36.625,16.65 C39.7,16.65 42.475,14.3 42.475,10.225 C42.475,6.125 39.7,3.775 36.625,3.775 C33.575,3.775 30.8,6.125 30.8,10.225 C30.8,14.3 33.575,16.65 36.625,16.65 Z M36.625,14.3 C34.825,14.3 33.75,12.675 33.75,10.225 C33.75,7.75 34.825,6.125 36.625,6.125 C38.425,6.125 39.525,7.75 39.525,10.225 C39.525,12.675 38.425,14.3 36.625,14.3 Z" id="Shape"></path>
                            <path d="M45.325,16.35 L48.2,16.35 L48.2,8.85 C48.95,7 50.125,6.325 51.1,6.325 C51.625,6.325 51.95,6.4 52.375,6.525 L52.875,4.025 C52.5,3.85 52.1,3.775 51.475,3.775 C50.175,3.775 48.875,4.65 48,6.25 L47.9,6.25 L47.7,4.075 L45.325,4.075 L45.325,16.35 Z" id="Path"></path>
                        </g>
                        <g id="error" transform="translate(44.000000, 47.000000)">
                            <path d="M6.83314892,0.195277547 L0.195246745,6.83361345 C0.0702319142,6.95863645 9.64043642e-16,7.12819912 0,7.30500257 L0,16.694348 C-3.08697229e-15,16.8711514 0.070231915,17.0407141 0.195246747,17.1657371 L6.83379837,23.8047225 C6.95882388,23.9297561 7.12839975,24 7.30521829,24 L16.6947817,24 C16.8716002,24 17.0411761,23.9297561 17.1662016,23.8047225 L23.8047533,17.1657371 C23.9297681,17.0407141 24,16.8711514 24,16.694348 L24,7.30500257 C24,7.12819912 23.9297681,6.95863645 23.8047533,6.83361345 L17.1668511,0.195277547 C17.0418256,0.0702438732 16.8722497,-1.41884872e-15 16.6954312,0 L7.30456884,0 C7.1277503,1.25372637e-15 6.95817442,0.0702438732 6.83314892,0.195277547 Z" id="Fill-1" fill="#FFFFFF"></path>
                            <path d="M16.6954312,0 C16.8722497,-1.41884872e-15 17.0418256,0.0702438732 17.1668511,0.195277547 L17.1668511,0.195277547 L23.8047533,6.83361345 C23.9297681,6.95863645 24,7.12819912 24,7.30500257 L24,7.30500257 L24,16.694348 C24,16.8711514 23.9297681,17.0407141 23.8047533,17.1657371 L23.8047533,17.1657371 L17.1662016,23.8047225 C17.0411761,23.9297561 16.8716002,24 16.6947817,24 L16.6947817,24 L7.30521829,24 C7.12839975,24 6.95882388,23.9297561 6.83379837,23.8047225 L6.83379837,23.8047225 L0.195246747,17.1657371 C0.070231915,17.0407141 -3.08697229e-15,16.8711514 0,16.694348 L0,16.694348 L0,7.30500257 C9.64043642e-16,7.12819912 0.0702319142,6.95863645 0.195246745,6.83361345 L0.195246745,6.83361345 L6.83314892,0.195277547 C6.95817442,0.0702438732 7.1277503,1.25372637e-15 7.30456884,0 L7.30456884,0 Z M16.3920979,6.66666667 C16.132737,6.66666667 15.8970273,6.77209465 15.7266589,6.94246308 L15.7266589,6.94246308 L12.0002004,10.6689215 L8.2733411,6.94246308 C8.10297268,6.77209465 7.86766382,6.66666667 7.60790209,6.66666667 C7.08837862,6.66666667 6.66666667,7.08797775 6.66666667,7.60790209 C6.66666667,7.86766382 6.77209465,8.10257181 6.94246308,8.27294023 L6.94246308,8.27294023 L10.6693224,11.9997996 L6.94246308,15.7266589 C6.77209465,15.8970273 6.66666667,16.1323362 6.66666667,16.3920979 C6.66666667,16.9116214 7.08837862,17.3333333 7.60790209,17.3333333 C7.86766382,17.3333333 8.10297268,17.2279053 8.2733411,17.0571361 L8.2733411,17.0571361 L12.0002004,13.3306776 L15.7266589,17.0571361 C15.8970273,17.2279053 16.132737,17.3333333 16.3920979,17.3333333 C16.9116214,17.3333333 17.3333333,16.9116214 17.3333333,16.3920979 C17.3333333,16.1323362 17.2279053,15.8970273 17.0575369,15.7266589 L17.0575369,15.7266589 L13.3306776,11.9997996 L17.0575369,8.27294023 C17.2279053,8.10257181 17.3333333,7.86766382 17.3333333,7.60790209 C17.3333333,7.08797775 16.9116214,6.66666667 16.3920979,6.66666667 Z" id="🎨-Color" fill="#DB0000"></path>
                        </g>
                    </g>
                </g>
            </g>
        </g>
    </g>
</svg>