<?xml version="1.0" encoding="UTF-8"?>
<svg width="98px" height="112px" viewBox="0 0 98 112" version="1.1" xmlns="http://www.w3.org/2000/svg" xmlns:xlink="http://www.w3.org/1999/xlink">
    <title>72D9E161-C23A-4963-A6F7-BB63917774D9</title>
    <g id="↳-components/Modals" stroke="none" stroke-width="1" fill="none" fill-rule="evenodd">
        <g id="Modals---Import" transform="translate(-1046.000000, -3161.000000)">
            <g id="icon-document-uploaded" transform="translate(1046.000000, 3161.000000)">
                <path d="M64.7421135,4 C65.390937,4 66.0144159,4.26439433 66.465551,4.73386375 L92.9169378,32.2393484 C93.3427282,32.6800056 93.5826578,33.2681136 93.5860371,33.8833388 L93.9898621,109.362836 C93.9966207,109.440798 94,109.518761 94,109.600113 C94,110.925474 92.9287653,112 91.6074632,112 L2.3925368,112 C1.07292434,112 -2.84217094e-14,110.925474 -2.84217094e-14,109.600113 L-2.84217094e-14,6.39988701 C-2.84217094e-14,5.07452568 1.07292434,4 2.3925368,4 L64.7421135,4 Z M61.183,8.799 L4.78507361,8.79977402 L4.78507361,107.200226 L89.1845128,107.200226 L88.817,36.102 L63.5688421,36.1027368 C62.2501053,36.1027368 61.184,35.0349474 61.184,33.7162105 L61.183,8.799 Z M76.6199075,80.8816266 C78.2403933,80.8816266 79.5540567,82.1952899 79.5540567,83.8157758 C79.5540567,85.4362616 78.2403933,86.749925 76.6199075,86.749925 L17.4497443,86.749925 C15.8292585,86.749925 14.5155951,85.4362616 14.5155951,83.8157758 C14.5155951,82.1952899 15.8292585,80.8816266 17.4497443,80.8816266 L76.6199075,80.8816266 Z M76.6199075,63.2767315 C78.2403933,63.2767315 79.5540567,64.5903948 79.5540567,66.2108807 C79.5540567,67.8313665 78.2403933,69.1450299 76.6199075,69.1450299 L17.4497443,69.1450299 C15.8292585,69.1450299 14.5155951,67.8313665 14.5155951,66.2108807 C14.5155951,64.5903948 15.8292585,63.2767315 17.4497443,63.2767315 L76.6199075,63.2767315 Z M49.581446,45.6718364 C51.2019318,45.6718364 52.5155951,46.9854997 52.5155951,48.6059856 C52.5155951,50.2264714 51.2019318,51.5401348 49.581446,51.5401348 L17.4497443,51.5401348 C15.8292585,51.5401348 14.5155951,50.2264714 14.5155951,48.6059856 C14.5155951,46.9854997 15.8292585,45.6718364 17.4497443,45.6718364 L49.581446,45.6718364 Z M65.9536842,12.1414737 L65.9536842,31.3313684 L85.1435789,31.3313684 L65.9536842,12.1414737 Z" id="Combined-Shape" fill="#EAE9E9"></path>
                <path d="M68.7421135,3.55271368e-14 C69.390937,3.55271368e-14 70.0144159,0.264394332 70.465551,0.733863754 L96.9169378,28.2393484 C97.3427282,28.6800056 97.5826578,29.2681136 97.5860371,29.8833388 L97.9898621,105.362836 C97.9966207,105.440798 98,105.518761 98,105.600113 C98,106.925474 96.9287653,108 95.6074632,108 L6.3925368,108 C5.07292434,108 4,106.925474 4,105.600113 L4,2.39988701 C4,1.07452568 5.07292434,3.55271368e-14 6.3925368,3.55271368e-14 L68.7421135,3.55271368e-14 Z M65.183,4.799 L8.78507361,4.79977402 L8.78507361,103.200226 L93.1845128,103.200226 L92.817,32.102 L67.5688421,32.1027368 C66.2501053,32.1027368 65.184,31.0349474 65.184,29.7162105 L65.183,4.799 Z M80.6199075,76.8816266 C82.2403933,76.8816266 83.5540567,78.1952899 83.5540567,79.8157758 C83.5540567,81.4362616 82.2403933,82.749925 80.6199075,82.749925 L21.4497443,82.749925 C19.8292585,82.749925 18.5155951,81.4362616 18.5155951,79.8157758 C18.5155951,78.1952899 19.8292585,76.8816266 21.4497443,76.8816266 L80.6199075,76.8816266 Z M80.6199075,59.2767315 C82.2403933,59.2767315 83.5540567,60.5903948 83.5540567,62.2108807 C83.5540567,63.8313665 82.2403933,65.1450299 80.6199075,65.1450299 L21.4497443,65.1450299 C19.8292585,65.1450299 18.5155951,63.8313665 18.5155951,62.2108807 C18.5155951,60.5903948 19.8292585,59.2767315 21.4497443,59.2767315 L80.6199075,59.2767315 Z M53.581446,41.6718364 C55.2019318,41.6718364 56.5155951,42.9854997 56.5155951,44.6059856 C56.5155951,46.2264714 55.2019318,47.5401348 53.581446,47.5401348 L21.4497443,47.5401348 C19.8292585,47.5401348 18.5155951,46.2264714 18.5155951,44.6059856 C18.5155951,42.9854997 19.8292585,41.6718364 21.4497443,41.6718364 L53.581446,41.6718364 Z M69.9536842,8.14147368 L69.9536842,27.3313684 L89.1435789,27.3313684 L69.9536842,8.14147368 Z" id="Combined-Shape" fill="#727272"></path>
            </g>
        </g>
    </g>
</svg>