<?xml version="1.0" encoding="UTF-8"?>
<svg width="94px" height="108px" viewBox="0 0 94 108" version="1.1" xmlns="http://www.w3.org/2000/svg" xmlns:xlink="http://www.w3.org/1999/xlink">
    <title>8A51FBBC-C2A9-411D-8652-5E34BB3E2473</title>
    <g id="↳-components/Modals" stroke="none" stroke-width="1" fill="none" fill-rule="evenodd">
        <g id="Modals---Import" transform="translate(-545.000000, -3161.000000)" fill="#0081CB">
            <g id="icon-document-hover" transform="translate(545.000000, 3161.000000)">
                <path d="M64.7421135,3.55271368e-14 C65.390937,3.55271368e-14 66.0144159,0.264394332 66.465551,0.733863754 L92.9169378,28.2393484 C93.3427282,28.6800056 93.5826578,29.2681136 93.5860371,29.8833388 L93.9898621,105.362836 C93.9966207,105.440798 94,105.518761 94,105.600113 C94,106.925474 92.9287653,108 91.6074632,108 L2.3925368,108 C1.07292434,108 -2.84217094e-14,106.925474 -2.84217094e-14,105.600113 L-2.84217094e-14,2.39988701 C-2.84217094e-14,1.07452568 1.07292434,3.55271368e-14 2.3925368,3.55271368e-14 L64.7421135,3.55271368e-14 Z M61.183,4.799 L4.78507361,4.79977402 L4.78507361,103.200226 L89.1845128,103.200226 L88.817,32.102 L63.5688421,32.1027368 C62.2501053,32.1027368 61.184,31.0349474 61.184,29.7162105 L61.183,4.799 Z M76.6199075,76.8816266 C78.2403933,76.8816266 79.5540567,78.1952899 79.5540567,79.8157758 C79.5540567,81.4362616 78.2403933,82.749925 76.6199075,82.749925 L17.4497443,82.749925 C15.8292585,82.749925 14.5155951,81.4362616 14.5155951,79.8157758 C14.5155951,78.1952899 15.8292585,76.8816266 17.4497443,76.8816266 L76.6199075,76.8816266 Z M76.6199075,59.2767315 C78.2403933,59.2767315 79.5540567,60.5903948 79.5540567,62.2108807 C79.5540567,63.8313665 78.2403933,65.1450299 76.6199075,65.1450299 L17.4497443,65.1450299 C15.8292585,65.1450299 14.5155951,63.8313665 14.5155951,62.2108807 C14.5155951,60.5903948 15.8292585,59.2767315 17.4497443,59.2767315 L76.6199075,59.2767315 Z M49.581446,41.6718364 C51.2019318,41.6718364 52.5155951,42.9854997 52.5155951,44.6059856 C52.5155951,46.2264714 51.2019318,47.5401348 49.581446,47.5401348 L17.4497443,47.5401348 C15.8292585,47.5401348 14.5155951,46.2264714 14.5155951,44.6059856 C14.5155951,42.9854997 15.8292585,41.6718364 17.4497443,41.6718364 L49.581446,41.6718364 Z M65.9536842,8.14147368 L65.9536842,27.3313684 L85.1435789,27.3313684 L65.9536842,8.14147368 Z" id="Combined-Shape"></path>
            </g>
        </g>
    </g>
</svg>