<svg width="20" height="20" xmlns="http://www.w3.org/2000/svg" fill="#d3d3d3" aria-hidden="true">
<path d="M7.773 10.972a.96.96 0 011.342.016.93.93 0 01.085 1.249l-.069.075-3.273 3.217 1.78-.073c.26-.01.523.083.725.282.375.37.381.962.015 1.323a.927.927 0 01-.522.258l-.097.008-4.25.174a.977.977 0 01-.724-.282.95.95 0 01-.284-.619l-.001-.096.175-4.19c.01-.223.099-.442.27-.61a.96.96 0 011.342.015c.176.173.271.394.285.619v.096L4.5 14.19l3.273-3.218zm8.717-8.471c.26-.01.526.083.725.281a.95.95 0 01.284.619l.001.096-.175 4.19a.906.906 0 01-.27.61.96.96 0 01-1.342-.015.948.948 0 01-.285-.618v-.097l.072-1.755-3.273 3.217a.96.96 0 01-1.342-.016.93.93 0 01-.085-1.248l.069-.075 3.273-3.218-1.78.073a.971.971 0 01-.725-.281.927.927 0 01-.015-1.324.927.927 0 01.522-.257l.097-.01 4.25-.172z" fill-rule="evenodd">
</path>
</svg>
