<?xml version="1.0" encoding="UTF-8" standalone="no"?>
<svg width="12px" height="12px" viewBox="0 0 12 12" version="1.1" xmlns="http://www.w3.org/2000/svg" xmlns:xlink="http://www.w3.org/1999/xlink">
    <!-- Generator: Sketch 39.1 (31720) - http://www.bohemiancoding.com/sketch -->
    <title>icon_copy</title>
    <desc>Created with Sketch.</desc>
    <defs></defs>
    <g id="Page-1" stroke="none" stroke-width="1" fill="none" fill-rule="evenodd">
        <g id="icon_copy" fill="#0081CB">
            <path d="M11.1818,9.05 L10.3534,9.05 L10.3534,8.25 L11.15,8.25 L11.15,0.95 L3.85,0.95 L3.85,1.7158 L3.05,1.7158 L3.05,0.9182 C3.05,0.4946 3.3946,0.15 3.8182,0.15 L11.1818,0.15 C11.6054,0.15 11.95,0.4946 11.95,0.9182 L11.95,8.2818 C11.95,8.7054 11.6054,9.05 11.1818,9.05" id="Fill-1"></path>
            <path d="M8.9,12 L0.9,12 C0.4588,12 0.1,11.6412 0.1,11.2 L0.1,3.2 C0.1,2.7588 0.4588,2.4 0.9,2.4 L8.9,2.4 C9.3412,2.4 9.7,2.7588 9.7,3.2 L9.7,11.2 C9.7,11.6412 9.3412,12 8.9,12 L8.9,12 Z M8.9,11.2 L8.9,11.6 L8.9,11.2 L8.9,11.2 Z M0.9,3.2 L0.9,11.2 L8.8988,11.2 L8.9,3.2 L0.9,3.2 L0.9,3.2 Z" id="Fill-2"></path>
        </g>
    </g>
</svg>