<?xml version="1.0" encoding="UTF-8"?>
<svg width="24px" height="24px" viewBox="0 0 24 24" version="1.1" xmlns="http://www.w3.org/2000/svg" xmlns:xlink="http://www.w3.org/1999/xlink">
    <!-- Generator: sketchtool 58 (101010) - https://sketch.com -->
    <title>C53E932D-E37C-4BF6-88D0-3629DB9EA651</title>
    <desc>Created with sketchtool.</desc>
    <g id="↳-components/Environment-and-tools" stroke="none" stroke-width="1" fill="none" fill-rule="evenodd">
        <g id="Environment-and-Tools/Sub-pages-4---Security-(Example)" transform="translate(-272.000000, -435.000000)" fill="#727272">
            <g id="Group-4-Copy-2" transform="translate(24.000000, 405.000000)">
                <g id="Group-2">
                    <g id="ic-copy" transform="translate(248.000000, 30.000000)">
                        <g id="Shape">
                            <path d="M15.749,6.086 C16.44,6.086 17,6.684 17,7.421 L17,20.753 C17,21.49 16.44,22.086 15.749,22.086 L3.249,22.086 C2.56,22.086 2,21.49 2,20.753 L2,7.421 C2,6.684 2.559,6.086 3.25,6.086 L15.749,6.086 Z M4,20.086 L15,20.086 L15,8.086 L4,8.086 L4,20.086 Z M20.75,2.086 C21.44,2.086 22,2.683 22,3.42 L22,16.752 C22,17.489 21.44,18.086 20.75,18.086 L18.774,18.086 L18.774,16.112 L20.148,16.112 L20.148,4.06 L8.85,4.06 L8.85,5.067 L7,5.067 L7,3.42 C7,2.683 7.56,2.086 8.251,2.086 L20.751,2.086 L20.75,2.086 Z"></path>
                        </g>
                    </g>
                </g>
            </g>
        </g>
    </g>
</svg>