<svg xmlns="http://www.w3.org/2000/svg" width="16" height="16" viewBox="0 0 16 16">
    <path fill="#0081CB" fill-rule="evenodd" d="M13.712 9.751c.433 0 .744.45.574.854-1 2.386-3.327 4.062-6.045 4.062a6.53 6.53 0 0 1-5.341-2.79V13a.621.621 0 0 1-.617.626.621.621 0 0 1-.616-.626v-2.5a.62.62 0 0 1 .615-.624h2.672c.34 0 .615.278.615.624a.62.62 0 0 1-.615.625H3.882a5.308 5.308 0 0 0 4.36 2.292c2.196 0 4.078-1.346 4.898-3.268a.626.626 0 0 1 .572-.398zM7.759 1.333c2.12 0 4.11 1.039 5.342 2.79V3a.62.62 0 0 1 .616-.625c.34 0 .616.28.616.625v2.5a.62.62 0 0 1-.616.625h-2.67a.62.62 0 0 1-.617-.625.62.62 0 0 1 .616-.624h1.071A5.306 5.306 0 0 0 7.76 2.583c-2.196 0-4.08 1.347-4.899 3.269a.628.628 0 0 1-.571.397.622.622 0 0 1-.575-.854c1-2.386 3.327-4.062 6.045-4.062z"/>
</svg>
