<?xml version="1.0" encoding="UTF-8"?>
<svg width="24px" height="24px" viewBox="0 0 24 24" version="1.1" xmlns="http://www.w3.org/2000/svg" xmlns:xlink="http://www.w3.org/1999/xlink">
    <title>4A90DF29-27A1-4268-9561-421E337041B9</title>
    <g id="INTEGRATE" stroke="none" stroke-width="1" fill="none" fill-rule="evenodd">
        <g id="5---V11" transform="translate(-1162.000000, -632.000000)">
            <g id="Group-18-Copy" transform="translate(1162.000000, 632.000000)">
                <rect id="Rectangle" x="0" y="0" width="24" height="24"></rect>
                <g id="Group-17" transform="translate(4.000000, 3.109529)" stroke="#1774E5">
                    <path d="M13,8 L13,1 C13,0.44771525 12.5522847,-1.01453063e-16 12,0 L1,0 C0.44771525,1.01453063e-16 -6.76353751e-17,0.44771525 0,1 L0,15 C6.76353751e-17,15.5522847 0.44771525,16 1,16 L7,16 L7,16" id="Path-2" stroke-width="2"></path>
                    <line x1="3" y1="10" x2="7" y2="10" id="Path-5" stroke-width="1.4" stroke-linecap="round"></line>
                    <line x1="3" y1="7.04400655" x2="10" y2="7.04400655" id="Path-4" stroke-width="1.4" stroke-linecap="round"></line>
                    <line x1="3" y1="4.03213887" x2="10" y2="4.03213887" id="Path-3" stroke-width="1.4" stroke-linecap="round"></line>
                    <path d="M12,10.6116509 C12.8974627,10.6116509 13.7099627,10.9754195 14.298097,11.5635539 C14.8862314,12.1516882 15.25,12.9641882 15.25,13.8616509 C15.25,14.7591136 14.8862314,15.5716136 14.298097,16.1597479 C13.7099627,16.7478823 12.8974627,17.1116509 12,17.1116509 C11.1025373,17.1116509 10.2900373,16.7478823 9.70190296,16.1597479 C9.11376864,15.5716136 8.75,14.7591136 8.75,13.8616509 C8.75,12.9641882 9.11376864,12.1516882 9.70190296,11.5635539 C10.2900373,10.9754195 11.1025373,10.6116509 12,10.6116509 Z" id="Oval" stroke-width="1.5"></path>
                    <line x1="14.3653724" y1="16.4738319" x2="15.9520304" y2="18.2547747" id="Path-6" stroke-width="1.4" stroke-linecap="round"></line>
                </g>
            </g>
        </g>
    </g>
</svg>