<svg xmlns="http://www.w3.org/2000/svg" width="24" height="24" viewBox="0 0 24 24">
    <path fill="#727272" fill-rule="evenodd" d="M18.305 17.25l.003.002-2.25 2.5-.003-.002a.746.746 0 0 1-.555.25.746.746 0 0 1-.556-.25l-.002.002-2.25-2.5.002-.002A.75.75 0 0 1 13.25 16c.221 0 .418.098.556.25l.002-.002.942 1.047V4.75a.75.75 0 1 1 1.5 0v12.546l.942-1.048.003.002a.747.747 0 1 1 1.11 1M11.25 8a.746.746 0 0 1-.556-.25l-.002.002-.942-1.047V19.25a.75.75 0 1 1-1.5 0V6.704l-.942 1.048-.002-.002A.746.746 0 0 1 6 7.25c0-.193.075-.367.194-.5l-.002-.002 2.25-2.5.002.002A.746.746 0 0 1 9 4c.221 0 .418.098.556.25l.002-.002 2.25 2.5-.002.002A.745.745 0 0 1 11.25 8"/>
</svg>
