<?xml version="1.0" encoding="UTF-8"?>
<svg width="24px" height="24px" viewBox="0 0 24 24" version="1.1" xmlns="http://www.w3.org/2000/svg" xmlns:xlink="http://www.w3.org/1999/xlink">
    <!-- Generator: Sketch 51.1 (57501) - http://www.bohemiancoding.com/sketch -->
    <title>ic_sort_descending</title>
    <desc>Created with Sketch.</desc>
    <defs></defs>
    <g id="System-icons" stroke="none" stroke-width="1" fill="none" fill-rule="evenodd">
        <g id="system-icon/sort-descending" fill="#000000">
            <g id="Group">
                <path d="M11.0528912,6.31058738 C11.2273682,6.12240797 11.4721842,6 11.7507993,6 C12.026674,6 12.2724034,6.12240797 12.4450534,6.31332785 L15.2595232,9.43564447 C15.4065954,9.60372705 15.4997716,9.82022472 15.4997716,10.0632137 C15.4997716,10.5811638 15.0804787,10.9995433 14.5625285,10.9995433 C14.2857404,10.9995433 14.040011,10.8771353 13.8673609,10.6880424 L12.6880424,9.37992144 L12.6880424,17.0627569 C12.6880424,17.5788801 12.2687494,18 11.7507993,18 C11.2319357,18 10.8126427,17.5788801 10.8126427,17.0627569 L10.8126427,9.37992144 L9.63423769,10.6898694 C9.46067416,10.8771353 9.21494473,10.9995433 8.93815657,10.9995433 C8.41929296,10.9995433 8,10.5811638 8,10.0632137 C8,9.82022472 8.0940897,9.60372705 8.24390244,9.43747145 L11.0528912,6.31058738 Z" id="Mask" transform="translate(11.749886, 12.000000) rotate(-180.000000) translate(-11.749886, -12.000000) "></path>
            </g>
        </g>
    </g>
</svg>